# xmcd
#
# Track frame offsets: 
#        150
#        13426
#        27429
#        41979
#        54379
#        72517
#        85052
#        98778
#        110617
#        125230
#        140199
#        154270
#
# Disc length: 2189 seconds
#
# Revision: 2
# Processed by: cddbd v1.5.1PL0 Copyright (c) Steve Scherf et al.
# Submitted via: ExactAudioCopy v0.95a5
#
DISCID=b7088b0c
DTITLE=Duelo Norteño - Si acaso me escuchas
DYEAR=2004
DGENRE=Other
TTITLE0=Si acaso me escuchas
TTITLE1=Quizas si, Quizas ni
TTITLE2=Nunca me dejes
TTITLE3=No queda nada
TTITLE4=Ya lo pagaras con dios
TTITLE5=Me he quedado solo
TTITLE6=Victima de amor
TTITLE7=La culpa es mia
TTITLE8=Trono infernal
TTITLE9=Celos de amor
TTITLE10=Si tu me quieres perdonar
TTITLE11=Solo falta tu amor
EXTD=
EXTT0=
EXTT1=
EXTT2=
EXTT3=
EXTT4=
EXTT5=
EXTT6=
EXTT7=
EXTT8=
EXTT9=
EXTT10=
EXTT11=
PLAYORDER=
